<svg id='logo' xmlns="http://www.w3.org/2000/svg" width="69" height="20" viewBox="0 0 69 20" fill="none">
  <path fill-rule="evenodd" clip-rule="evenodd" d="M3.58005 0.173704L2.46441e-07 0.173704L-3.17164e-10 19.1646L3.58005 19.1646L3.58005 0.173704ZM9.78967 12.4907C9.78967 16.3263 12.6638 19.1646 16.5464 19.1646C20.4038 19.1646 23.3031 16.1473 23.3031 12.4907C23.3031 8.55287 20.6307 5.79127 16.7481 5.79127C15.4875 5.79127 14.3026 6.25154 13.3697 6.96751L13.3697 0.188896L9.78967 0.188896L9.78967 12.4907ZM19.7231 12.4907C19.7231 14.2807 18.3869 15.7382 16.5464 15.7382C14.706 15.7382 13.3697 14.2807 13.3697 12.4907C13.3697 10.7008 14.706 9.21771 16.5464 9.21771C18.3869 9.21771 19.7231 10.7008 19.7231 12.4907ZM30.6667 19.1283C26.7841 19.1283 23.8596 16.3923 23.8596 12.3521C23.8596 8.69555 26.4816 5.67825 30.3389 5.67825C34.2972 5.67825 36.5914 8.64441 36.5914 12.0964L36.5914 13.1704L27.3136 13.1704C27.5657 14.858 28.8515 15.9831 30.6415 15.9831C32.0029 15.9831 33.1374 15.3183 33.7173 14.1421L36.4654 15.5484C35.3813 17.8242 33.3139 19.1283 30.6667 19.1283ZM27.4648 11.1503L33.0366 11.1503C32.8853 9.84622 31.8264 8.84898 30.3137 8.84898C28.7506 8.84898 27.717 9.87179 27.4648 11.1503ZM40.7421 19.1283L37.162 19.1283L37.162 11.3569C37.162 8.10942 38.9773 5.62909 42.6834 5.62909L46.2382 5.62909L46.2382 9.05553L43.0111 9.05553C41.5993 9.05553 40.7421 9.97606 40.7421 11.4847L40.7421 19.1283ZM47.0695 8.72312L47.0722 8.72312L47.0722 13.7841C47.0722 16.9548 48.8622 19.1539 52.4674 19.1539L55.0642 19.1283L55.0642 15.9064L52.7952 15.9064C51.4842 15.9064 50.6522 15.0882 50.6522 13.6818L50.6522 9.05553L55.0642 9.05553L55.0642 5.62909L50.6522 5.62909L50.6522 2.40721L47.0722 2.40721L47.0722 5.29668L47.0695 5.29668L47.0695 8.72312ZM4.91068 5.61765L8.46616 5.61765L8.46616 19.1646L4.91068 19.1646L4.91068 5.61765ZM64.3186 4.03748L61.4692 0.171876L57.78 0.171876L60.7058 4.03748L64.3186 4.03748ZM55.3374 12.3875C55.3374 16.1163 57.9071 19.1719 61.5708 19.1719C63.3009 19.1719 64.6748 18.4727 65.5653 17.3334L65.5653 19.1719L69 19.1719L69 12.3875C69 8.52924 66.0996 5.62906 62.156 5.62906C58.2888 5.62906 55.3374 8.7105 55.3374 12.3875ZM65.3872 12.4134C65.3872 14.226 64.0133 15.7279 62.156 15.7279C60.2987 15.7279 58.9503 14.226 58.9503 12.4134C58.9503 10.6008 60.2987 9.09892 62.156 9.09892C64.0133 9.09892 65.3872 10.6008 65.3872 12.4134Z" fill="black"/>
</svg>
<svg id='search_icon' xmlns="http://www.w3.org/2000/svg" width="16" height="15" viewBox="0 0 16 15" fill="none">
  <path d="M14.9104 14.4146L10.3975 9.90161M1.37158 6.14083C1.37158 6.83225 1.50777 7.5169 1.77236 8.15569C2.03696 8.79448 2.42478 9.3749 2.91369 9.86381C3.4026 10.3527 3.98302 10.7405 4.62181 11.0051C5.2606 11.2697 5.94526 11.4059 6.63668 11.4059C7.3281 11.4059 8.01275 11.2697 8.65154 11.0051C9.29033 10.7405 9.87075 10.3527 10.3597 9.86381C10.8486 9.3749 11.2364 8.79448 11.501 8.15569C11.7656 7.5169 11.9018 6.83225 11.9018 6.14083C11.9018 5.44941 11.7656 4.76475 11.501 4.12596C11.2364 3.48717 10.8486 2.90675 10.3597 2.41784C9.87075 1.92893 9.29033 1.54111 8.65154 1.27651C8.01275 1.01192 7.3281 0.875732 6.63668 0.875732C5.94526 0.875732 5.2606 1.01192 4.62181 1.27651C3.98302 1.54111 3.4026 1.92893 2.91369 2.41784C2.42478 2.90675 2.03696 3.48717 1.77236 4.12596C1.50777 4.76475 1.37158 5.44941 1.37158 6.14083Z" stroke="#212121" stroke-linecap="round" stroke-linejoin="round"/>
</svg>
<svg id='shopping_bag_icon' xmlns="http://www.w3.org/2000/svg" width="21" height="20" viewBox="0 0 21 20" fill="none">
  <g clip-path="url(#clip0_223_239)">
    <path d="M6.39622 5.76015V4.1116C6.39622 3.01855 6.83043 1.97026 7.60334 1.19736C8.37625 0.424449 9.42453 -0.00976562 10.5176 -0.00976562C11.6106 -0.00976562 12.6589 0.424449 13.4318 1.19736C14.2047 1.97026 14.639 3.01855 14.639 4.1116V5.76015H17.1118C17.3304 5.76015 17.5401 5.84699 17.6946 6.00158C17.8492 6.15616 17.9361 6.36581 17.9361 6.58443V16.4757C17.9361 16.6943 17.8492 16.904 17.6946 17.0586C17.5401 17.2131 17.3304 17.3 17.1118 17.3H3.9234C3.70478 17.3 3.49513 17.2131 3.34055 17.0586C3.18596 16.904 3.09912 16.6943 3.09912 16.4757V6.58443C3.09912 6.36581 3.18596 6.15616 3.34055 6.00158C3.49513 5.84699 3.70478 5.76015 3.9234 5.76015H6.39622ZM6.39622 7.4087H4.74767V15.6514H16.2875V7.4087H14.639V9.05725H12.9904V7.4087H8.04477V9.05725H6.39622V7.4087ZM8.04477 5.76015H12.9904V4.1116C12.9904 3.45577 12.7299 2.8268 12.2661 2.36305C11.8024 1.89931 11.1734 1.63878 10.5176 1.63878C9.86175 1.63878 9.23278 1.89931 8.76904 2.36305C8.30529 2.8268 8.04477 3.45577 8.04477 4.1116V5.76015Z" fill="black"/>
  </g>
  <defs>
    <clipPath id="clip0_223_239">
      <rect width="19.7826" height="19.7826" fill="white" transform="translate(0.626465 0.109375)"/>
    </clipPath>
  </defs>
</svg>
<svg id='burger_menu_button' xmlns="http://www.w3.org/2000/svg" width="20" height="16" viewBox="0 0 20 16" fill="none">
  <path d="M18.753 8.81633H0.815348C0.365274 8.81633 0 8.45106 0 8.00099C0 7.55091 0.365274 7.18564 0.815348 7.18564H18.753C19.2031 7.18564 19.5683 7.55091 19.5683 8.00099C19.5683 8.45106 19.2031 8.81633 18.753 8.81633Z" fill="black"/>
  <path d="M18.753 2.56527H0.815348C0.365274 2.56527 0 2.19999 0 1.74992C0 1.29984 0.365274 0.93457 0.815348 0.93457H18.753C19.2031 0.93457 19.5683 1.29984 19.5683 1.74992C19.5683 2.19999 19.2031 2.56527 18.753 2.56527Z" fill="black"/>
  <path d="M18.753 15.0672H0.815348C0.365274 15.0672 0 14.7019 0 14.2518C0 13.8018 0.365274 13.4365 0.815348 13.4365H18.753C19.2031 13.4365 19.5683 13.8018 19.5683 14.2518C19.5683 14.7019 19.2031 15.0672 18.753 15.0672Z" fill="black"/>
</svg>