<svg aria-hidden="true" style="position: absolute; width: 0; height: 0; overflow: hidden;" version="1.1" xmlns="http://www.w3.org/2000/svg" xmlns:xlink="http://www.w3.org/1999/xlink">
<defs>
<symbol id='icon-burger-menu' xmlns="http://www.w3.org/2000/svg" width="20" height="16" viewBox="0 0 20 16" fill="none">
  <path d="M18.753 8.6307H0.815348C0.365274 8.6307 0 8.26542 0 7.81535C0 7.36527 0.365274 7 0.815348 7H18.753C19.2031 7 19.5683 7.36527 19.5683 7.81535C19.5683 8.26542 19.2031 8.6307 18.753 8.6307Z" fill="black"/>
  <path d="M18.8624 2.56527H0.924723C0.474649 2.56527 0.109375 2.19999 0.109375 1.74992C0.109375 1.29984 0.474649 0.93457 0.924723 0.93457H18.8624C19.3124 0.93457 19.6777 1.29984 19.6777 1.74992C19.6777 2.19999 19.3124 2.56527 18.8624 2.56527Z" fill="black"/>
  <path d="M18.8624 15.0672H0.924723C0.474649 15.0672 0.109375 14.7019 0.109375 14.2519C0.109375 13.8018 0.474649 13.4365 0.924723 13.4365H18.8624C19.3124 13.4365 19.6777 13.8018 19.6777 14.2519C19.6777 14.7019 19.3124 15.0672 18.8624 15.0672Z" fill="black"/>
</symbol>
<symbol id="icon-shopping-bag" viewBox="0 0 34 32">
<path d="M10.41 9.216v-2.638c0-1.749 0.695-3.426 1.931-4.663s2.914-1.931 4.663-1.931c1.749 0 3.426 0.695 4.663 1.931s1.931 2.914 1.931 4.663v2.638h3.956c0.35 0 0.685 0.139 0.933 0.386s0.386 0.583 0.386 0.933v15.826c0 0.35-0.139 0.685-0.386 0.933s-0.583 0.386-0.933 0.386h-21.101c-0.35 0-0.685-0.139-0.933-0.386s-0.386-0.583-0.386-0.933v-15.826c0-0.35 0.139-0.685 0.386-0.933s0.583-0.386 0.933-0.386h3.957zM10.41 11.854h-2.638v13.188h18.464v-13.188h-2.638v2.638h-2.638v-2.638h-7.913v2.638h-2.638v-2.638zM13.047 9.216h7.913v-2.638c0-1.049-0.417-2.056-1.159-2.798s-1.748-1.159-2.798-1.159c-1.049 0-2.056 0.417-2.798 1.159s-1.159 1.748-1.159 2.798v2.638z"></path>
</symbol>
<symbol id="icon-union" viewBox="0 0 112 32">
<path d="M5.904 0.278h-5.728v30.385h5.728v-30.385zM15.839 19.985c0 6.137 4.599 10.678 10.811 10.678 6.172 0 10.811-4.828 10.811-10.678 0-6.301-4.276-10.719-10.488-10.719-2.017 0-3.913 0.736-5.405 1.882v-10.846h-5.728v19.683zM31.733 19.985c0 2.864-2.138 5.196-5.083 5.196s-5.083-2.332-5.083-5.196c0-2.864 2.138-5.237 5.083-5.237s5.083 2.373 5.083 5.237zM49.243 30.605c-6.212 0-10.891-4.378-10.891-10.842 0-5.85 4.195-10.678 10.367-10.678 6.333 0 10.004 4.746 10.004 10.269v1.718h-14.845c0.404 2.7 2.461 4.5 5.325 4.5 2.178 0 3.994-1.064 4.921-2.946l4.397 2.25c-1.735 3.641-5.042 5.728-9.278 5.728zM44.12 17.84h8.915c-0.242-2.087-1.936-3.682-4.357-3.682-2.501 0-4.155 1.636-4.558 3.682zM65.363 30.605h-5.728v-12.434c0-5.196 2.904-9.165 8.834-9.165h5.688v5.482h-5.163c-2.259 0-3.631 1.473-3.631 3.887v12.23zM75.487 13.957h0.004v8.098c0 5.073 2.864 8.592 8.632 8.592l4.155-0.041v-5.155h-3.63c-2.098 0-3.429-1.309-3.429-3.559v-7.402h7.059v-5.482h-7.059v-5.155h-5.728v4.623h-0.004v5.482zM8.033 8.988h5.689v21.675h-5.689v-21.675zM103.086 6.46l-4.559-6.185h-5.903l4.681 6.185h5.78zM88.716 19.82c0 5.966 4.112 10.855 9.973 10.855 2.768 0 4.966-1.119 6.391-2.942v2.942h5.496v-10.855c0-6.173-4.641-10.813-10.95-10.813-6.188 0-10.91 4.93-10.91 10.813zM104.795 19.861c0 2.9-2.198 5.303-5.17 5.303s-5.129-2.403-5.129-5.303c0-2.9 2.158-5.303 5.129-5.303s5.17 2.403 5.17 5.303z"></path>
</symbol>
<symbol id="icon-search-icon" viewBox="0 0 34 32">
<path stroke-linejoin="round" stroke-linecap="round" stroke-miterlimit="4" stroke-width="2.1333" d="M31.809 30.751l-9.628-9.628M2.926 13.1c0 1.475 0.291 2.936 0.855 4.298s1.392 2.601 2.435 3.644c1.043 1.043 2.281 1.87 3.644 2.435s2.823 0.855 4.298 0.855c1.475 0 2.936-0.291 4.298-0.855s2.601-1.392 3.644-2.435c1.043-1.043 1.87-2.281 2.435-3.644s0.855-2.823 0.855-4.298c0-1.475-0.291-2.936-0.855-4.298s-1.392-2.601-2.435-3.644c-1.043-1.043-2.281-1.87-3.644-2.435s-2.823-0.855-4.298-0.855c-1.475 0-2.936 0.291-4.298 0.855s-2.601 1.392-3.644 2.435c-1.043 1.043-1.87 2.281-2.435 3.644s-0.855 2.823-0.855 4.298z"></path>
</symbol>
</defs>
<symbol id='arrow-icon' xmlns="http://www.w3.org/2000/svg" width="8" height="13" viewBox="0 0 8 13" fill="none">
  <path d="M0.43519 11.9892C0.0443897 11.5981 0.0443897 10.9647 0.43519 10.5747L4.727 6.28205L0.43519 1.98943C0.0443897 1.59828 0.0443897 0.964891 0.43519 0.574855C0.825991 0.183707 1.45944 0.183707 1.85024 0.574855L6.84899 5.57421C7.23979 5.96535 7.23979 6.59875 6.84899 6.98878L1.85024 11.9881C1.65542 12.1837 1.39878 12.2815 1.1433 12.2815C0.887819 12.2815 0.631174 12.1837 0.436357 11.9881" fill="#86868B"/>
</symbol>
<symbol id="icon-footer-logo" viewBox="0 0 113 32">
<path d="M6.556 0.429h-5.841v30.985h5.841v-30.985zM16.688 20.525c0 6.258 4.689 10.889 11.024 10.889 6.294 0 11.024-4.923 11.024-10.889 0-6.425-4.36-10.931-10.695-10.931-2.057 0-3.99 0.751-5.512 1.919v-11.060h-5.841v20.071zM32.895 20.525c0 2.92-2.18 5.299-5.183 5.299s-5.183-2.378-5.183-5.299 2.18-5.34 5.183-5.34c3.003 0 5.183 2.42 5.183 5.34zM50.75 31.355c-6.335 0-11.106-4.464-11.106-11.056 0-5.966 4.278-10.889 10.572-10.889 6.458 0 10.201 4.84 10.201 10.472v1.752h-15.138c0.411 2.754 2.509 4.589 5.43 4.589 2.221 0 4.072-1.085 5.018-3.004l4.484 2.295c-1.769 3.713-5.142 5.841-9.461 5.841zM45.526 18.338h9.091c-0.247-2.128-1.974-3.755-4.442-3.755-2.55 0-4.237 1.669-4.648 3.755zM67.189 31.355h-5.841v-12.68c0-5.298 2.962-9.345 9.009-9.345h5.8v5.591h-5.265c-2.303 0-3.702 1.502-3.702 3.963v12.471zM77.513 14.378h0.004v8.257c0 5.173 2.92 8.761 8.803 8.761l4.237-0.042v-5.257h-3.702c-2.139 0-3.496-1.335-3.496-3.63v-7.548h7.199v-5.591h-7.199v-5.257h-5.841v4.714h-0.004v5.591zM8.727 9.311h5.801v22.103h-5.801v-22.103zM105.656 6.733l-4.65-6.307h-6.019l4.774 6.307h5.895zM91.002 20.357c0 6.084 4.193 11.069 10.17 11.069 2.823 0 5.065-1.141 6.517-3v3h5.604v-11.069c0-6.295-4.732-11.027-11.166-11.027-6.31 0-11.125 5.028-11.125 11.027zM107.4 20.399c0 2.957-2.242 5.408-5.272 5.408s-5.231-2.45-5.231-5.408c0-2.957 2.2-5.408 5.231-5.408s5.272 2.45 5.272 5.408z"></path>
</symbol>
<symbol id="icon-telegram" viewBox="0 0 32 32">
<path d="M24.515 10.364l-3.038 11.793c-0.275 1.068-1.516 1.497-2.396 0.953-0.72-0.446-2.219-1.326-5.159-2.906-0.585-0.314-0.794-1.133-0.292-1.688l1.464-1.617-2.401 1.316c-0.775 0.425-1.733 0.672-2.722 0.465-1.342-0.28-2.603-0.783-2.983-0.941-0.958-0.398-0.827-1.667 0.007-2.008l16.119-6.589c0.792-0.324 1.615 0.394 1.401 1.223zM7.387 16.689c-0.042 0.017-0.044 0.076-0.002 0.093 0.362 0.15 1.551 0.623 2.797 0.884 0.689 0.144 1.395-0.021 2.013-0.36l6.982-3.826c0.154-0.084 0.307 0.111 0.19 0.24l-4.97 5.49c-0.023 0.025-0.014 0.065 0.015 0.081 2.95 1.586 4.468 2.477 5.213 2.938 0.315 0.195 0.757 0.029 0.849-0.331l3.038-11.793c0.001-0.004-0.003-0.008-0.007-0.006l-16.119 6.589z"></path>
</symbol>
<symbol id="icon-viber" viewBox="0 0 32 32">
<path d="M13.351 11.428c-0.136-0.306-0.414-0.549-0.748-0.527-1.046 0.067-1.693 1.029-1.985 2.043-0.336 1.167 0.052 2.403 0.739 3.405 0.641 0.935 1.459 1.768 2.378 2.442 1.268 0.93 2.938 1.582 4.288 0.776 0.694-0.415 1.296-1.035 1.451-1.711 0.078-0.339-0.169-0.641-0.486-0.785l-1.578-0.718c-0.211-0.096-0.487-0.048-0.683 0.076-0.34 0.216-0.79 0.474-1.152 0.298-0.887-0.431-1.474-0.986-1.899-1.895-0.169-0.363 0.071-0.816 0.283-1.156 0.13-0.209 0.173-0.492 0.073-0.717l-0.68-1.531zM12.551 11.794l0.643 1.446c-0.112 0.181-0.261 0.442-0.356 0.733-0.099 0.305-0.177 0.764 0.041 1.23 0.517 1.109 1.26 1.804 2.312 2.315 0.481 0.234 0.953 0.143 1.258 0.037 0.279-0.097 0.53-0.246 0.703-0.354l1.401 0.637c-0.144 0.31-0.481 0.674-0.981 0.972-0.428 0.255-0.933 0.303-1.518 0.163-0.596-0.143-1.224-0.472-1.798-0.893-0.843-0.618-1.59-1.38-2.173-2.23-0.6-0.875-0.856-1.838-0.619-2.664 0.245-0.853 0.664-1.305 1.087-1.393z"></path>
<path d="M17.927 14.356c0.075 0.286-0.16 0.543-0.456 0.543-0.229 0-0.423-0.158-0.513-0.369-0.223-0.521-0.637-0.936-1.158-1.158-0.211-0.090-0.369-0.284-0.369-0.513 0-0.296 0.257-0.531 0.543-0.456 0.967 0.254 1.699 0.987 1.953 1.953z"></path>
<path d="M19.557 14.996c0.313 0 0.557-0.278 0.482-0.582-0.475-1.927-2.002-3.454-3.929-3.929-0.304-0.075-0.582 0.168-0.582 0.482 0 0.25 0.179 0.461 0.42 0.528 1.485 0.417 2.665 1.597 3.082 3.082 0.067 0.24 0.278 0.42 0.528 0.42z"></path>
<path d="M21.983 14.578c0.009 0.275-0.22 0.492-0.495 0.492-0.296 0-0.528-0.249-0.544-0.544-0.133-2.559-2.24-4.666-4.799-4.799-0.295-0.015-0.544-0.248-0.544-0.544 0-0.275 0.217-0.505 0.492-0.495 3.163 0.109 5.78 2.726 5.889 5.889z"></path>
<path d="M20.303 22.216c-1.341 0.246-2.77 0.379-4.252 0.379-0.419 0-0.833-0.011-1.243-0.031-0.166-0.008-0.327 0.061-0.432 0.19l-2.267 2.764c-0.308 0.376-0.918 0.158-0.918-0.328v-2.74c0-0.227-0.149-0.425-0.36-0.508-1.811-0.708-3.108-2.375-3.348-4.365-0.118-0.973-0.179-1.981-0.179-3.013s0.062-2.040 0.179-3.013c0.281-2.328 2.009-4.216 4.316-4.639 1.341-0.246 2.77-0.379 4.252-0.379s2.912 0.133 4.252 0.379c2.306 0.424 4.035 2.311 4.316 4.639 0.118 0.973 0.179 1.981 0.179 3.013s-0.062 2.040-0.179 3.013c-0.281 2.328-2.009 4.216-4.316 4.639zM20.116 21.198c1.848-0.339 3.247-1.854 3.475-3.745 0.112-0.931 0.172-1.898 0.172-2.889s-0.059-1.957-0.172-2.889c-0.228-1.891-1.627-3.406-3.475-3.745-1.278-0.235-2.644-0.362-4.065-0.362s-2.788 0.127-4.065 0.362c-1.848 0.339-3.247 1.854-3.475 3.745-0.113 0.931-0.172 1.898-0.172 2.889s0.059 1.957 0.172 2.889c0.195 1.616 1.246 2.957 2.697 3.524 0.567 0.222 1.019 0.776 1.019 1.472v1.293l1.349-1.645c0.318-0.387 0.797-0.592 1.285-0.567 0.392 0.020 0.789 0.030 1.19 0.030 1.421 0 2.788-0.127 4.065-0.362z"></path>
</symbol>
<symbol id="icon-whatsapp" viewBox="0 0 32 32">
<path d="M14.116 11.052c0.201 0.055 0.338 0.229 0.423 0.42l0.773 1.738c0.101 0.226 0.057 0.511-0.073 0.722-0.213 0.342-0.454 0.798-0.284 1.163 0.427 0.915 1.018 1.474 1.91 1.907 0.365 0.177 0.817-0.083 1.159-0.3 0.197-0.125 0.474-0.173 0.687-0.076l1.812 0.824c0.187 0.085 0.358 0.22 0.413 0.419 0.288 1.041-0.969 2.379-1.939 2.379-0.953 0-1.896-0.188-2.776-0.552s-1.68-0.899-2.353-1.572c-0.674-0.674-1.208-1.473-1.572-2.353s-0.552-1.823-0.552-2.776c0-0.969 1.334-2.223 2.374-1.94zM14.474 13.493l-0.71-1.598c-0.149 0.013-0.381 0.094-0.649 0.325-0.361 0.311-0.491 0.644-0.491 0.772 0 0.837 0.165 1.666 0.485 2.439s0.79 1.476 1.381 2.067c0.592 0.592 1.294 1.061 2.067 1.381s1.602 0.485 2.439 0.485c0.128 0 0.463-0.131 0.774-0.492 0.232-0.27 0.312-0.503 0.324-0.651l-1.644-0.748c-0.174 0.109-0.427 0.26-0.708 0.357-0.306 0.106-0.78 0.197-1.262-0.038-1.057-0.513-1.803-1.212-2.324-2.327-0.219-0.468-0.141-0.928-0.041-1.235 0.096-0.294 0.247-0.557 0.359-0.739z"></path>
<path d="M16.36 24.695c5.007 0 9.067-4.059 9.067-9.067s-4.059-9.067-9.067-9.067c-5.007 0-9.067 4.059-9.067 9.067 0 1.511 0.37 2.936 1.023 4.188 0.062 0.119 0.079 0.256 0.045 0.385l-1.030 3.843c-0.103 0.385 0.249 0.738 0.635 0.634l3.856-1.033c0.129-0.034 0.265-0.017 0.383 0.044 1.245 0.643 2.657 1.006 4.154 1.006zM24.39 15.628c0 4.435-3.595 8.031-8.031 8.031-1.328 0-2.578-0.322-3.679-0.89-0.336-0.174-0.737-0.228-1.127-0.124l-2.989 0.801 0.797-2.976c0.105-0.392 0.049-0.795-0.127-1.133-0.578-1.108-0.906-2.369-0.906-3.709 0-4.435 3.595-8.030 8.030-8.030s8.031 3.595 8.031 8.030z"></path>
</symbol>
<symbol id='icon-close' xmlns="http://www.w3.org/2000/svg" width="16" height="15" viewBox="0 0 16 15" fill="none">
  <path d="M2.83318 0.784668L7.71613 6.43901L12.6158 0.784668H14.9904L8.85325 7.64234L15.2412 14.7847H12.9001L7.73285 8.87154L2.58235 14.7847H0.241211L6.62917 7.64234L0.492047 0.784668H2.83318Z" fill="#F1F1F1"/>
</symbol>
</svg>
